<?xml version="1.0" encoding="utf-8"?>
<!-- Generator: Adobe Illustrator 16.0.0, SVG Export Plug-In . SVG Version: 6.00 Build 0)  -->
<!DOCTYPE svg PUBLIC "-//W3C//DTD SVG 1.0//EN" "http://www.w3.org/TR/2001/REC-SVG-20010904/DTD/svg10.dtd">
<svg version="1.0" id="Layer_1" xmlns="http://www.w3.org/2000/svg" xmlns:xlink="http://www.w3.org/1999/xlink" x="0px" y="0px"
	 width="32px" height="32px" viewBox="0 0 32 32" enable-background="new 0 0 32 32" xml:space="preserve">
<g>
	<path d="M18.046,7.974c0,2.104,0.001,14.422,0.001,16.022c0,2.002,2.01,2.59,3.139,1.459l8.24-8.105
		c0.747-0.747,0.786-1.959,0.037-2.703l-8.157-8.108C20.287,5.522,18.046,5.971,18.046,7.974z"/>
	<path d="M13.411,17.351c0.748-0.748,0.783-1.96,0.033-2.704L5.297,6.539c-1.021-1.017-3.25-0.567-3.25,1.436
		c0,2.104,0,14.422,0,16.022c0,2.002,1.998,2.591,3.129,1.459L13.411,17.351z"/>
</g>
<g>
</g>
<g>
</g>
<g>
</g>
<g>
</g>
<g>
</g>
<g>
</g>
<g>
</g>
<g>
</g>
<g>
</g>
<g>
</g>
<g>
</g>
<g>
</g>
<g>
</g>
<g>
</g>
<g>
</g>
</svg>
