<?xml version="1.0" encoding="utf-8"?>
<!-- Generator: Adobe Illustrator 16.0.0, SVG Export Plug-In . SVG Version: 6.00 Build 0)  -->
<!DOCTYPE svg PUBLIC "-//W3C//DTD SVG 1.0//EN" "http://www.w3.org/TR/2001/REC-SVG-20010904/DTD/svg10.dtd">
<svg version="1.0" id="Layer_1" xmlns="http://www.w3.org/2000/svg" xmlns:xlink="http://www.w3.org/1999/xlink" x="0px" y="0px"
	 width="32px" height="32px" viewBox="0 0 32 32" enable-background="new 0 0 32 32" xml:space="preserve">
<g>
	<path d="M14.007,24.063c0-2.104,0-14.422,0-16.021c0-2.002-2.01-2.591-3.14-1.459l-8.24,8.104c-0.747,0.747-0.786,1.96-0.037,2.703
		l8.157,8.108C11.766,26.516,14.007,26.066,14.007,24.063z"/>
	<path d="M18.643,14.688c-0.748,0.747-0.783,1.96-0.033,2.703l8.146,8.108c1.021,1.017,3.25,0.567,3.25-1.436
		c0-2.104,0-14.422,0-16.021c0-2.002-1.998-2.591-3.129-1.459L18.643,14.688z"/>
</g>
<g>
</g>
<g>
</g>
<g>
</g>
<g>
</g>
<g>
</g>
<g>
</g>
<g>
</g>
<g>
</g>
<g>
</g>
<g>
</g>
<g>
</g>
<g>
</g>
<g>
</g>
<g>
</g>
<g>
</g>
</svg>
